<svg width="94" height="93" viewBox="0 0 94 93" fill="none" xmlns="http://www.w3.org/2000/svg">
<path d="M64.0414 47.5007C73.5154 57.061 82.8107 66.4408 92.0465 75.7606C86.3986 81.4598 80.738 87.1719 75.0689 92.8926C65.846 83.5858 56.5379 74.193 47.1873 64.753C37.7302 74.3004 28.4349 83.6802 19.1992 93C13.4365 87.1848 7.75034 81.4469 2.02164 75.6661C11.2574 66.3464 20.5484 56.9708 29.8905 47.5436C19.8547 37.4208 9.88264 27.3623 0 17.3897C5.75849 11.5788 11.4361 5.84954 17.1648 0.0687171C27.0219 10.0155 36.9939 20.0783 46.9872 30.1668C57.0316 20.0267 67.0036 9.96827 76.882 0C82.6575 5.82807 88.3351 11.5574 94 17.2738C84.1514 27.2163 74.1794 37.2747 64.0414 47.5007Z" fill="black"/>
</svg>
