<svg width="202" height="233" viewBox="0 0 202 233" fill="none" xmlns="http://www.w3.org/2000/svg">
<path d="M202 106.85C200 115.21 198.56 123.75 195.86 131.87C193.05 140.32 189.02 148.36 185.24 157.26C173.48 148.19 162.62 139.81 151.86 131.51C164.72 98.7199 160.45 74.39 138.94 56.43C119.47 40.17 92.2698 38.29 70.5298 51.71C49.6198 64.61 38.8998 90.1 44.3898 113.83C49.6998 136.76 69.8398 156.05 90.8998 158.05C90.8998 147.47 90.8998 136.92 90.8998 125.41C113.69 143.19 135.79 160.42 158.28 177.97C136.23 196.21 114.63 214.07 92.0498 232.74C92.0498 221.85 92.0498 212.15 92.0498 203.4C81.2298 200.11 70.8298 198.08 61.4098 193.87C26.2998 178.16 6.03977 150.95 0.859766 112.69C0.729766 111.73 0.299766 110.81 0.00976562 109.86C0.00976562 103.86 0.00976562 97.86 0.00976562 91.86C1.46977 85.1 2.52977 78.21 4.47977 71.6C18.1098 25.53 63.9798 -4.93005 111.81 0.659954C151.98 5.35995 179.88 26.95 195.63 64C198.7 71.22 199.93 79.22 202 86.85C202 93.52 202 100.19 202 106.85Z" fill="black"/>
</svg>
