<svg width="77" height="89" viewBox="0 0 77 89" fill="none" xmlns="http://www.w3.org/2000/svg">
<g clip-path="url(#clip0)">
<path d="M77.0011 48.1405C76.2387 44.9436 75.6898 41.6779 74.6606 38.5728C73.5894 35.3415 72.0533 32.267 70.6124 28.8636C66.1296 32.332 61.9899 35.5365 57.8883 38.7105C62.7904 51.2494 61.1627 60.5532 52.9634 67.4211C45.5416 73.639 35.1733 74.3579 26.8863 69.2261C18.9156 64.2931 14.8293 54.5457 16.922 45.4713C18.9461 36.7029 26.6232 29.3263 34.6511 28.5615C34.6511 32.6073 34.6511 36.6417 34.6511 41.0431C43.3383 34.244 51.7626 27.6553 60.3355 20.9441C51.9303 13.9691 43.6967 7.13944 35.0894 1.60367e-05C35.0894 4.16436 35.0894 7.87366 35.0894 11.2197C30.965 12.4778 27.0006 13.254 23.4098 14.8639C10.0263 20.8715 2.30345 31.2766 0.328893 45.9073C0.279338 46.2744 0.115427 46.6262 0.00488281 46.9894C0.00488281 49.2839 0.00488281 51.5783 0.00488281 53.8727C0.561417 56.4577 0.965477 59.0924 1.70879 61.6201C6.90439 79.2373 24.3895 90.8853 42.6217 88.7476C57.934 86.9503 68.5692 78.6943 74.5729 64.5264C75.7432 61.7654 76.212 58.7062 77.0011 55.7885C77.0011 53.2379 77.0011 50.6873 77.0011 48.1405Z" fill="white"/>
</g>
<defs>
<clipPath id="clip0">
<rect width="77" height="89" transform="matrix(1 0 0 -1 0 89)" fill="white"/>
</clipPath>
</defs>
</svg>
